<svg width="178" height="110" fill="none" xmlns="http://www.w3.org/2000/svg"><path fill-rule="evenodd" clip-rule="evenodd" d="M29.653 58.353l-.065 2.15a17.702 17.702 0 00-5.054-2.051 25.101 25.101 0 00-6.162-.75c-2.87.013-5.667.9-8.02 2.54a18.7 18.7 0 00-6.032 6.649 17.54 17.54 0 00-2.25 8.538 14.532 14.532 0 002.152 7.789 15.15 15.15 0 005.87 5.475 16.868 16.868 0 008.086 1.988 18.767 18.767 0 005.674-.978 20.497 20.497 0 005.282-2.477v.912a12.92 12.92 0 01-1.663 6.746c-1.152 2.02-3.272 3.03-6.358 3.03a7.771 7.771 0 01-4.467-1.3 4.264 4.264 0 01-1.988-3.584L2.592 89.053a21.09 21.09 0 002.51 10.4 17.822 17.822 0 006.977 7.04 20.624 20.624 0 0010.271 2.51c4.566 0 8.152-1.119 10.76-3.357a17.13 17.13 0 005.313-7.53 25.065 25.065 0 001.467-7.3l.391-32.46-10.628-.003zm-9.91 22.49a5.329 5.329 0 01-4.142-1.86 6.819 6.819 0 01-1.663-4.725 6.7 6.7 0 011.663-4.693 5.52 5.52 0 014.271-1.825 6.12 6.12 0 014.5 1.825 6.2 6.2 0 011.826 4.563 6.656 6.656 0 01-1.89 4.693 6.028 6.028 0 01-4.566 2.02v.002zm45.513-22.62l-.065 15.383v-.063a8.938 8.938 0 01-1.532 5.377 5.435 5.435 0 01-8.02.652 6.034 6.034 0 01-1.338-4.2l.065-17.273H42.301l-.2 17.924c-.087 5.733 1 10.09 3.261 13.069 2.262 2.98 5.63 4.467 10.107 4.464 1.88.015 3.743-.351 5.477-1.076a11.121 11.121 0 004.173-2.966v3.194h12.39V58.223H65.256zm35.342-.261c-1.53.01-3.046.309-4.467.88a13.25 13.25 0 00-4.01 2.444v-3H79.991v34.74h12.13V80.516c.173-3.78.836-6.507 1.987-8.18a5.943 5.943 0 015.25-2.51 6.03 6.03 0 015.151 2.607l4.5-10.1a12.262 12.262 0 00-3.912-3.226 9.75 9.75 0 00-4.5-1.141v-.003zm32.083.26l-.065 15.384v-.063a8.93 8.93 0 01-1.532 5.377 5.436 5.436 0 01-8.02.652 6.04 6.04 0 01-1.337-4.2l.065-17.273h-12.065l-.2 17.925c-.088 5.733.999 10.09 3.261 13.069 2.262 2.98 5.631 4.467 10.106 4.463a13.91 13.91 0 005.477-1.075 11.114 11.114 0 004.173-2.966v3.194h12.39V58.223h-12.253zm22.1-2.4a4.28 4.28 0 003.376-1.55 5.51 5.51 0 001.343-3.735 4.177 4.177 0 00-1.207-3.293A4.164 4.164 0 00155 46.037a4.868 4.868 0 00-3.551 1.31 4.557 4.557 0 00-1.343 3.409 5.044 5.044 0 001.386 3.6 4.388 4.388 0 003.291 1.464l-.002.003zm-9.186 53.182c4.086 0 7.292-1.021 9.618-3.064a16.561 16.561 0 004.891-8.832 60.788 60.788 0 001.337-14.5l-.13-24.9-12.976.39-.13 22.228v1.89c-.044 3.085-.141 5.475-.293 7.17a12.015 12.015 0 01-1.174 4.4 4.222 4.222 0 01-2.967 2.314c-.366.07-.736.113-1.109.13a3.383 3.383 0 01-2.283-.847l-4.043 11.146c2.304 1.651 5.39 2.476 9.26 2.477l-.001-.002zm25.082-52.8a4.447 4.447 0 003.388-1.451 5.18 5.18 0 001.355-3.681 4.307 4.307 0 00-1.249-3.24 4.483 4.483 0 00-3.282-1.22 5.454 5.454 0 00-3.706 1.347 4.286 4.286 0 00-1.545 3.365c0 .869.258 1.718.741 2.44a5.39 5.39 0 001.906 1.788 4.837 4.837 0 002.393.65l-.001.002zm-5.976 36.63h12.585V58.288h-13.632l1.047 34.546zM24.971 40.362l-11.708-2.333-1.449 6.327 6.3 1.2a2.9 2.9 0 01-1.362 1.591 6.916 6.916 0 01-2.28.954c-.338.07-.682.105-1.027.106a5.419 5.419 0 01-3.679-1.432 6.213 6.213 0 01-2.228-4.79 6.282 6.282 0 011.255-3.8 5.428 5.428 0 013.2-2.175 7.504 7.504 0 011.592-.177c.871 0 1.737.138 2.565.407.755.225 1.45.617 2.032 1.148l3.75-5.8a9.658 9.658 0 00-3.733-2 16.234 16.234 0 00-4.722-.689c-.985.002-1.968.097-2.936.283a12.8 12.8 0 00-5.483 2.651A13.933 13.933 0 000 42.508c-.005.866.078 1.731.248 2.581a13.2 13.2 0 002.67 5.585 14.036 14.036 0 004.828 3.853 13.324 13.324 0 005.907 1.379c.868-.005 1.734-.1 2.582-.283a11.276 11.276 0 004.846-2.315 12.499 12.499 0 003.378-4.224 11.31 11.31 0 001.22-5.055 9.3 9.3 0 00-.708-3.676v.009zm12.486-3.535a6.615 6.615 0 00-2.423.477 7.189 7.189 0 00-2.175 1.325v-1.626H26.28v18.84h6.58v-6.787a8.759 8.759 0 011.078-4.436 3.225 3.225 0 012.847-1.361 3.273 3.273 0 012.794 1.414l2.441-5.479a6.655 6.655 0 00-2.122-1.75 5.288 5.288 0 00-2.44-.619v.002zm23.875 19.017l-.809-18.77h-5.876v1.52a4.984 4.984 0 00-1.963-1.272 7.322 7.322 0 00-2.6-.46 8.952 8.952 0 00-7.958 4.7 9.9 9.9 0 00-1.2 4.843 10.064 10.064 0 001.167 4.807 9.263 9.263 0 003.148 3.482 7.747 7.747 0 004.316 1.29c.988 0 1.969-.167 2.9-.495a7.357 7.357 0 002.37-1.308l.035 1.661h6.471v.002zm-10.576-5.691a3.15 3.15 0 01-1.716-.53 4.068 4.068 0 01-1.344-1.414 3.55 3.55 0 01-.513-1.8 3.467 3.467 0 011.167-2.616 3.855 3.855 0 012.724-1.1 3.133 3.133 0 012.352.972 3.355 3.355 0 01.937 2.421 4.212 4.212 0 01-.5 2 4.037 4.037 0 01-1.344 1.5c-.519.363-1.136.56-1.769.566l.006.001zm23.521-13.539a8.001 8.001 0 00-3.042.6c-1.05.391-2.03.952-2.9 1.661l-.248-1.873-5.765-.035v20.844h7l-.318-3.24a8.933 8.933 0 004.351.954 7.128 7.128 0 004.28-1.325 8.636 8.636 0 002.847-3.606 12.229 12.229 0 001.008-5 10.004 10.004 0 00-1.945-6.345 6.717 6.717 0 00-5.27-2.633l.002-.002zm-1.626 13.15a3.76 3.76 0 01-2.706-1.114 3.543 3.543 0 01-1.15-2.633 3.171 3.171 0 011.008-2.4 3.533 3.533 0 012.528-.954 3.3 3.3 0 012.511 1.007 3.718 3.718 0 01.955 2.669 3.51 3.51 0 01-.867 2.51 2.99 2.99 0 01-2.28.916l.001-.001zm30.1 6.081l-.071-10.569a9.985 9.985 0 00-1.963-6.4 6.328 6.328 0 00-5.18-2.368 8.501 8.501 0 00-3.432.742 7.762 7.762 0 00-2.759 1.945l-.177-11.842h-6.72l.494 28.349 6.65.106-.142-10.429a3.492 3.492 0 013.466-2.616 3.33 3.33 0 012.405.848 3.078 3.078 0 01.884 2.333v9.9l6.545.001zm1.1-.106h6.827V38.074a26.148 26.148 0 01-4.606-.3 28.285 28.285 0 01-2.786-.637l.565 18.602zm17.366.353a10.128 10.128 0 007.8-3.871 6.022 6.022 0 001.326-3.694l-5.871-.566a3.008 3.008 0 01-1.185 1.343 3.198 3.198 0 01-1.751.53 3.378 3.378 0 01-1.786-.53 4.231 4.231 0 01-1.4-1.379 3.24 3.24 0 01-.531-1.731 3.184 3.184 0 011.114-2.386 3.601 3.601 0 012.529-1.043 3.038 3.038 0 011.857.619c.552.409.955.986 1.15 1.644l5.942-.53a6.268 6.268 0 00-1.38-3.889 9.733 9.733 0 00-3.59-2.863 10.323 10.323 0 00-4.51-1.06 9.065 9.065 0 00-4.722 1.272 9.496 9.496 0 00-4.651 8.236 9.68 9.68 0 001.309 4.9 10.068 10.068 0 003.535 3.642 9.064 9.064 0 004.81 1.361l.005-.005zm25.325-16.508a13.205 13.205 0 00-3.767-2.263 11.204 11.204 0 00-4.121-.813 9.024 9.024 0 00-3.891.866 7.885 7.885 0 00-2.935 2.28 4.823 4.823 0 00-1.095 2.944 4.822 4.822 0 00.953 2.993 6.797 6.797 0 002.526 2.145 7.307 7.307 0 003.343.8c.213.005.426-.007.637-.035a5.483 5.483 0 011.663.177.627.627 0 01.5.6c0 .353-.253.653-.76.9a4.21 4.21 0 01-1.857.371 6.364 6.364 0 01-2.228-.406 6.196 6.196 0 01-1.945-1.148l-3.572 4.028a8.577 8.577 0 003.36 2.315c1.415.577 2.929.871 4.457.866 1.51.015 3.003-.31 4.368-.954a8.31 8.31 0 003.184-2.563 5.796 5.796 0 001.185-3.517 4.522 4.522 0 00-2.024-3.934 9.677 9.677 0 00-5.624-1.414c-1.65 0-2.476-.295-2.476-.884 0-.33.23-.601.69-.813a4.191 4.191 0 011.751-.318 7.596 7.596 0 012.37.406c.981.341 1.929.773 2.83 1.29l2.478-3.919z" fill="#fff"/><path fill-rule="evenodd" clip-rule="evenodd" d="M103.559 36.007S95.044-1.227 134.273 1c0 0 3.394.176 5.438-1 0 0-.651.782-.2 5-.001.001 3.452 38.327-35.952 31.007z" fill="#fff"/></svg>